PathFileType	4	(X/Y/Z)	60_2_13_p0_0-413.trc
DataRate	CameraRate	NumFrames	NumMarkers	Units	OrigDataRate	OrigDataStartFrame	OrigNumFrames
60.0	60.0	6	27	m	60.0	155	414
Frame#	Time	RHip			RKnee			RAnkle			RBigToe			RSmallToe			RHeel			LHip			LKnee			LAnkle			LBigToe			LSmallToe			LHeel			Neck			Head			Nose			RShoulder			RElbow			RWrist			RThumb			RIndex			RPinky			LShoulder			LElbow			LWrist			LThumb			LIndex			LPinky			
		X1	Y1	Z1	X2	Y2	Z2	X3	Y3	Z3	X4	Y4	Z4	X5	Y5	Z5	X6	Y6	Z6	X7	Y7	Z7	X8	Y8	Z8	X9	Y9	Z9	X10	Y10	Z10	X11	Y11	Z11	X12	Y12	Z12	X13	Y13	Z13	X14	Y14	Z14	X15	Y15	Z15	X16	Y16	Z16	X17	Y17	Z17	X18	Y18	Z18	X19	Y19	Z19	X20	Y20	Z20	X21	Y21	Z21	X22	Y22	Z22	X23	Y23	Z23	X24	Y24	Z24	X25	Y25	Z25	X26	Y26	Z26	X27	Y27	Z27	
155	2.5833333333333335	0.3350177764186735	0.4310946988012121	-0.19775869416819047	0.33041758357622864	0.6355751677057451	0.24097971671435975	0.3135548941724976	0.7544547193516722	0.6061437576666006	0.2887488911219496	0.6571017758131632	0.7026057744556984	0.3652858358428077	0.6545490892255721	0.6787632874610903	0.27732053875487195	0.8901395666958803	0.6649748668554524	0.10560188868414104	0.4594313836985375	-0.20718156471569446	0.09701475347352376	0.6440449682976019	0.22195600354271097	0.09061631969794827	0.798115447631824	0.5861240874814639	0.10921316363409624	0.6392579674005754	0.678587505186137	0.05477858533304993	0.6760534884766897	0.6671605443917779	0.09663972446980491	0.8733231673903336	0.6220086961128297	0.25025496010205733	0.25085892850360775	-0.7196805722048548	0.2505398262915775	0.14096822555700458	-0.9364648286471513	0.23573289191012603	0.11186319519436436	-0.7917365411116689	0.4117645347328159	0.2922469503528751	-0.6446395425125055	0.4571843172657815	0.3486110820229548	-0.38294169834155223	0.43738262295983515	0.327922196039337	-0.12135668107878492	0.36904417520531924	0.4185071867841998	0.02681828094417135	0.3815462911239565	0.4338005037057455	0.04314245500348494	0.44804669867114644	0.38886663501466007	0.03569582448256796	0.07317568347026297	0.28234987415994145	-0.6558365151561254	0.012072687257642519	0.3944980693247245	-0.41242831419050796	-0.011141823207002369	0.4637979275816295	-0.17629272426565054	0.03632300336391489	0.4369363408695774	-0.054952475396105725	0.004551259423655564	0.4842090806303141	-0.03874637037833512	-0.020221823776276217	0.5063895138964076	-0.047964258572713935
156	2.6	0.3348776041780818	0.4311190525002735	-0.1976858912649984	0.3303431968889479	0.6356797929192588	0.24090804890392523	0.31776154476506546	0.7555675249285734	0.6063379296482517	0.29227419310312863	0.6423264892201962	0.7023909835646763	0.3654293323889172	0.6233363556034084	0.6755243462794652	0.28208292204185054	0.871705488836652	0.6612628074939885	0.10851342571542721	0.4729523619547022	-0.208019512957889	0.09628117785851777	0.6449058687259472	0.22555234864703536	0.09046568947305678	0.7977482682162879	0.5863393581008186	0.10900055133909631	0.6391938037469171	0.6789534563041588	0.05454601521011611	0.6759769744985082	0.6676959579986357	0.0921324696451674	0.8685442236976944	0.621035990172013	0.2502487424015198	0.25088060254254224	-0.7197474601016135	0.2534413181316246	0.15210609855754473	-0.937211016789148	0.23572907837747226	0.11030268816211695	-0.7946515313589092	0.4116917044349626	0.2923860258220085	-0.6446539991642484	0.45747430971993674	0.3482614070628967	-0.3865069793207932	0.4373465065033676	0.3279366161757763	-0.12146555201028164	0.3666932573620462	0.40764088538436916	0.025899253796089053	0.38181904416114365	0.43308591656294965	0.039548448968460936	0.4471035680801724	0.3872238861035863	0.03248714964815949	0.07311409943337693	0.2822966500316607	-0.6558697291240012	0.011909348525068728	0.3956822515650558	-0.4088007549742482	-0.011124376140753066	0.46383712612569183	-0.17619579646067984	0.04067178454322521	0.43866246216350346	-0.05149223323095482	0.0052529475442198385	0.4860124689378385	-0.03517992943615341	-0.01527006846619067	0.49289384416300946	-0.047641078433656545
157	2.6166666666666667	0.3389444814079372	0.44450422580297216	-0.1945478365989043	0.3303439221532161	0.6357351320063869	0.24097385491277393	0.3177460113952142	0.7555296116144605	0.6063087879529078	0.2921996038309883	0.6425034461789769	0.7024461365091269	0.3653909944693709	0.6234807670563606	0.6755140485240281	0.2820584034365026	0.871769974792177	0.6613083737771278	0.10857699165682003	0.47308406074571085	-0.20793825137093633	0.09627067783199209	0.6449411581229801	0.2255355387648669	0.09045579756808791	0.7978758431866542	0.5863409643652133	0.10899873584314898	0.6391909936810785	0.6789754668096343	0.054508299131339484	0.6759595804210341	0.6678241454511021	0.09296037716075899	0.8721183568002246	0.6257500893838349	0.25023813380498705	0.2509406229658349	-0.7197957461868602	0.2533824474477832	0.15207179279708505	-0.940216629759617	0.23963395038492447	0.1114785827669262	-0.7951284487185047	0.41470858295607527	0.2785986792236826	-0.6418548470927312	0.4575285071962668	0.34821665711332117	-0.3864736855138604	0.43723724040909645	0.32766179134712115	-0.1213782027052315	0.3659697391520051	0.4062640974261879	0.022676022148510604	0.38166078773223705	0.4332467224304396	0.03930279220745721	0.44303043541410636	0.37539014077606103	0.028584924295971263	0.07306834485674113	0.28222636658100236	-0.6558916266710577	0.011563074424436964	0.39257811594080433	-0.416109352175815	-0.006500392811587424	0.46394902246400227	-0.1796357521053443	0.04040950502853738	0.43818065730979927	-0.05484686580513599	0.005089033644085523	0.4863788678179644	-0.035160751074570194	-0.02004969997682058	0.5062088336757109	-0.04797626040863123
158	2.6333333333333333	0.33092562008599735	0.4305484877899866	-0.1936997209315013	0.33035939104022827	0.6352699497689437	0.24073980308696452	0.31776740779527546	0.7555474941621902	0.6062394580186488	0.29327307188536683	0.6408239394974429	0.6983890835454735	0.36545016189161117	0.6234373881479583	0.6754986751362502	0.28606007794628957	0.873423433682836	0.6615568883648043	0.10857507637925282	0.4728623398787597	-0.20804096860764554	0.09629295129306589	0.6448425176744931	0.22554493775224696	0.09047038526619781	0.7978890070259536	0.5865641005892187	0.11397938475157021	0.6235667750685984	0.6755742968642122	0.054456980485739014	0.6760750732728183	0.668041511984149	0.0971548601251274	0.8760402830265261	0.6268509757631464	0.2502209792887614	0.2508957805953332	-0.7197345585329229	0.25342832699474405	0.15218312226239505	-0.9401928621601515	0.23570063228337243	0.11045618079567193	-0.7947124421442097	0.4146959734597307	0.2784186461321581	-0.6418050720934985	0.457417927865564	0.348223040856832	-0.38657106684172754	0.4370271272683698	0.3269093332141978	-0.12520627952850855	0.36539014209070486	0.4072967084998548	0.0262334638160764	0.3810362933771015	0.433678987730923	0.04252046246455913	0.44057879827798735	0.3890525527822545	0.028600486451632056	0.07306281832305878	0.2822729002945615	-0.6558899217753739	0.011718691144916754	0.39354203606480065	-0.41262927132478733	-0.010560480911386037	0.46299395826732415	-0.17950286198260565	0.04047201644786499	0.43821038593368794	-0.054832886680515204	0.007021730790628328	0.49857493207372744	-0.035190305855722595	-0.015344305564914996	0.492746240852933	-0.047902669178697725
159	2.65	0.33453700545229187	0.44245716754178804	-0.19822654232828585	0.330309738488626	0.6353847091056899	0.24078727643072914	0.3175311681509605	0.7552125430355492	0.6024188211012348	0.29219217859248964	0.642469881294145	0.702257343380041	0.365394808245575	0.6233041056871819	0.675401784150727	0.28607535472108064	0.873886873238352	0.6617152084774773	0.10856883114017035	0.47290916019477414	-0.20808851240257384	0.0970527730221645	0.6440509669062189	0.22186341000876755	0.09125782708908885	0.8007126004984759	0.5912960183387654	0.11408241295994255	0.6236737053452629	0.6755555355626549	0.054566665482819084	0.6761209068040809	0.6679809579132049	0.09721449010509434	0.8763906374242273	0.6269254044681286	0.2502265852153849	0.25088843445346865	-0.719769657602653	0.25344595394977704	0.15210869354594733	-0.9401131620215929	0.2356348150278075	0.11056858849780765	-0.794744497556193	0.4117582271745768	0.2922339736197328	-0.6446305790347406	0.45736377785735366	0.3482988498822689	-0.386601951244084	0.4370320819727411	0.326934091708542	-0.1252756277681046	0.3652615867691905	0.4077092269519206	0.02616040213044218	0.38094394567209044	0.43378974300768663	0.04242194930151599	0.44050224929816484	0.3891654685281394	0.0285597802978743	0.07301938911349981	0.28219936669183304	-0.6558617691550241	0.01164228932620036	0.39245609792025876	-0.41620652762611415	-0.010615527498855365	0.4630099788139856	-0.17943334675703584	0.04035767621479978	0.43840303337950076	-0.054981702155125316	0.00022835862590252643	0.5010531023799413	-0.03501298401083029	-0.02013153964829479	0.5064759675967284	-0.047893651514354714
160	2.6666666666666665	0.3345561561331032	0.4424071977574154	-0.1984341599273344	0.33027153422448347	0.6353967002736638	0.24072042645709119	0.31780089656939053	0.7554972176964577	0.6063151809211992	0.289381186550535	0.6264685542595123	0.6950023903504577	0.36529672824458187	0.623504936490915	0.6754427034857865	0.28128041221213346	0.8923254290823277	0.6655249460392113	0.10852008860139625	0.472981543462101	-0.20820994653334726	0.09704533392310183	0.6440070132763993	0.22187194502480456	0.09020517585549753	0.8023852030936991	0.5957338440622286	0.1139828753222628	0.6235046522130864	0.6756843054110067	0.05449346626187071	0.6760896680510227	0.6681114669998911	0.09292731919508024	0.8719209670317485	0.6259896781436897	0.250242325562592	0.2510193840045771	-0.719864360236504	0.25338102612365365	0.15199217763075007	-0.9402124571851527	0.23563328353361412	0.11041249753611164	-0.7946643762619265	0.4118589256085886	0.2923139531978784	-0.6447096433850192	0.45736524284506586	0.3485213411098857	-0.38657707653381984	0.43382436274019615	0.33995338357360194	-0.1254644480807507	0.36116303396882404	0.39467156084147464	0.022846420175784154	0.3776655537075413	0.44795453882958153	0.042658856413981476	0.44029178745565245	0.3887804171737443	0.02852903312804539	0.07301134047502408	0.28222706772835654	-0.6558753056301815	0.01156159977733931	0.3926384202456525	-0.41617984473974806	-0.010627823678958615	0.4630782065218646	-0.1795204228094215	0.040396940038081704	0.43857280537997423	-0.05517210502112608	0.002356557023989843	0.5161861826123988	-0.03160330958659634	-0.020185178815761772	0.50674586064962	-0.04787355529836578
